<?xml version="1.0" encoding="utf-8"?>
<svg viewBox="185.8077 22.8074 103.405 185.3435" xmlns="http://www.w3.org/2000/svg">
  <g transform="matrix(-1, 0, 0, 1, 330.1812438964844, 22.807865142822266)" style="">
    <g>
      <path style="fill:#010002;" d="M51.707,185.343c-2.741,0-5.493-1.044-7.593-3.149c-4.194-4.194-4.194-10.981,0-15.175&#10;&#9;&#9;&#9;l74.352-74.347L44.114,18.32c-4.194-4.194-4.194-10.987,0-15.175c4.194-4.194,10.987-4.194,15.18,0l81.934,81.934&#10;&#9;&#9;&#9;c4.194,4.194,4.194,10.987,0,15.175l-81.934,81.939C57.201,184.293,54.454,185.343,51.707,185.343z"/>
    </g>
  </g>
</svg>