<?xml version="1.0" encoding="UTF-8"?>
<svg id="Ebene_2" data-name="Ebene 2" xmlns="http://www.w3.org/2000/svg" xmlns:xlink="http://www.w3.org/1999/xlink" viewBox="0 0 405.58 421.2">
  <defs>
    <style>
      .cls-1 {
        fill: #fff;
      }

      .cls-1, .cls-2 {
        stroke-width: 0px;
      }

      .cls-2 {
        fill: url(#Unbenannter_Verlauf_13);
      }
    </style>
    <linearGradient id="Unbenannter_Verlauf_13" data-name="Unbenannter Verlauf 13" x1="59.4" y1="361.38" x2="346.18" y2="74.59" gradientUnits="userSpaceOnUse">
      <stop offset="0" stop-color="#4158d0"/>
      <stop offset=".47" stop-color="#c850c0"/>
      <stop offset="1" stop-color="#ffcc70"/>
    </linearGradient>
  </defs>
  <g id="Ebene_1-2" data-name="Ebene 1">
    <circle class="cls-2" cx="202.79" cy="217.98" r="202.79"/>
    <g>
      <path class="cls-1" d="m359.07,202.38c8.38-2.45,11.54-5.59,11.99-11.66.5-6.59-2.72-10.96-10.94-14.74,0-6.92-.03-13.91.01-20.9.03-3.79-.43-7.22-5.51-7.4-4.02-.14-6.34,2.61-6.36,7.46-.03,7.13,0,14.27,0,21.78-6.24.45-7.53,5.49-8.27,10.53-1,6.8,1.42,12.1,7.59,14.03v46.49c-7.64.54-14.2.84-20.72,1.54-3.78.4-5.61-.64-5.62-4.43-.03-7.83-.22-15.66-.29-23.48-.2-21.49-.38-42.99-.53-64.48-.02-2.4-.5-4.79,2.95-6.1,5.48-2.09,7.59-6.67,7.45-12.08-.14-5.12-3.08-8.48-7.73-11-1.68-.91-3.23-3.34-3.43-5.21-.48-4.62.18-9.35-.33-13.96-.17-1.54-2.46-3.98-3.85-4.02-1.93-.06-4.34,1.4-5.74,2.89-.92.97-.63,3.18-.54,4.81.28,4.93.74,9.86,1.14,14.93-6.68,1.5-10.75,5.27-10.98,11.77-.24,6.67,3.72,10.82,9.99,13.1,0,21.77.06,43.41-.03,65.06-.04,8.99-.33,17.98-.7,26.96-.11,2.63-.47,5.63-4.4,5.66-7.25.07-14.51.02-21.95.02-.15-1.23-.32-2.03-.34-2.83-.33-12.99-.81-25.97-.8-38.96,0-2.24,1.62-5,3.4-6.63,5.73-5.27,6.35-13.22.72-18.31-3.45-3.12-4.9-6.37-3.83-11.1.9-4,.5-8.29.5-12.45,0-4.89-3.44-5.95-7.7-6.15-4.44-.21-5.88,2.11-5.74,5.87.16,4.33.19,8.67.64,12.97.38,3.61-.43,5.71-4.52,6.93-5.31,1.59-7.39,5.94-6.92,11.08.43,4.71,1.38,9.12,7.18,11.07,1.87.63,4.16,3.4,4.19,5.22.21,17.81.03,35.62-.28,53.43-.02,1.19-1.87,3.11-3.17,3.39-4.93,1.08-10.07,1.35-14.99,2.47-3.81.87-5.72.11-5.74-3.78-.05-11.31-.08-22.61-.15-33.92-.03-4.99.19-10.01-.36-14.95-.46-4.1-6.21-6.17-9.09-3.27-1.41,1.42-1.86,4.22-1.83,6.38.2,18.49.67,36.97.86,55.45.03,2.46-.4,6.61-1.75,7.1-6.06,2.2-12.55,3.35-18.87,4.91-2.99.74-5.95,1.55-8.98,2.34-.29-5.64-.46-12.12-1-18.58-.26-3.15-1.04-7.42-4.99-6.97-2.66.3-5.09,3.76-7.26,6.11-.76.83-.46,2.55-.64,3.87-1.15,8.41-1.99,16.88-3.67,25.2-.44,2.17-3.35,5.33-5.36,5.49-7.66.63-14.33,2.44-19.1,9.1-.98-14.45-1.4-28.58-1.88-42.72-.06-1.82.22-4.08-.78-5.32-1.4-1.74-3.72-3.53-5.86-3.82-3.13-.43-4.35,2.06-4.37,4.95-.04,5.65-.15,11.29-.23,16.94-.17,11.03-.35,22.06-.54,33.57-10.97-4.3-23.42-2.06-25,4.08,20.73-.54,41.22-2.7,60.2-10.54,16.84-6.95,32.69-16.06,49.17-23.85,11.99-5.67,23.84-12.18,36.54-15.72,16.9-4.7,33.97-10.08,51.97-9.81,11.95.18,24.21-.63,35.75,1.68,13.78,2.77,27.16,7.93,39.51,17.5.91-4.7,2.36-8.48,2.18-12.18-.28-5.81-2.17-11.56-2.48-17.37-.55-10.31-.39-20.65-.64-30.97-.05-1.96-.16-4.19-1.13-5.79-.9-1.48-3.08-3.28-4.54-3.16-1.81.14-3.95,1.81-5.05,3.39-.94,1.36-.76,3.52-.81,5.33-.29,10.49-.46,20.98-.78,31.46-.06,1.99-.63,3.97-.85,5.27-5.88-1.39-10.99-2.69-16.14-3.78-7.02-1.49-7.72-2.05-7.78-8.89-.11-12.64-.03-25.29-.03-38.28Z"/>
      <path class="cls-1" d="m108.61,397.46c-.02.56-.05,1.12-.07,1.68,27.98,14.1,57.94,21.39,89.51,22.01,37.16.72,72.84-5.93,105.21-24.11,20.54-11.53,39.71-25.06,55.05-43.46-1.48-.83-2.29-1.46-3.22-1.77-12.05-4.1-24.34-6.56-37.28-6.24-13.6.34-26.74,3.01-39.11,7.85-19.28,7.54-38.11,16.14-57.06,24.44-34.23,15-69.5,24.46-107.67,19.27-1.73-.24-3.57.21-5.36.34Z"/>
      <path class="cls-1" d="m18.84,305.37c.82,1.55,1.96,4.51,3.78,7.01,9.16,12.55,23.09,19.06,36.91,25.2,27.96,12.42,57.62,16.16,88.15,13.13,22.89-2.27,44.4-9.13,64.89-19.14,21.32-10.42,42.25-21.68,65.27-28.55,24.39-7.28,49.2-11.51,74.55-6.16,10.59,2.24,20.68,6.73,30.9,10.44,3.55,1.29,5.69,1.86,6.28-2.9.31-2.52,2.15-4.89,3.36-7.3,1.61-3.2,2.16-6.15-2.16-7.76-12.3-4.56-24.28-10.42-37-13.32-28.69-6.54-56.47.43-83.42,9.17-14.31,4.64-28.23,10.74-41.28,18.67-9.83,5.97-21.25,9.53-31.93,14.21-12.98,5.69-26.2,10.23-40.46,12.55-40.61,6.6-78.59.96-113.8-20.04-5.89-3.51-12.15-6.48-18.28-9.62-3.82-1.95-5.74-.92-5.75,4.4Z"/>
      <path class="cls-1" d="m46.64,349.7c-.27.68-.54,1.36-.81,2.03,2.16,8.42,9.37,12.94,16.11,17.43,10.87,7.24,23.46,10.01,36.45,12.08,19.43,3.1,38.81,3.4,58.23,1,30.2-3.74,57.25-16.06,83.72-29.46,15.18-7.69,30.65-14.39,47.35-18.06,25.43-5.59,50.84-8.47,75.4,3.82,4.32,2.16,8.33.25,10.44-4.13.94-1.96,1.81-3.96,2.87-5.86,2.25-4.04,1.28-7.34-3.01-9.01-7.38-2.87-14.77-6.17-22.5-7.7-24.58-4.86-48.4-.33-71.92,6.66-23.94,7.12-45.33,19.47-67.72,29.8-23.1,10.66-47.59,17.23-73.2,18.4-27.32,1.25-53.54-4.37-78.74-14.56-3.89-1.57-8.43-1.67-12.67-2.45Z"/>
      <path class="cls-1" d="m82.5,213.66c-.11.04.68-.28,1.49-.54,5.48-1.7,7.95-5.63,8.64-10.8.68-5.08-2.29-8.54-6.59-10.31-4.19-1.73-8.89-2.89-13.43-3.12-5.93-.31-12.07,5.46-13.02,11.09-.94,5.55,2.18,10.19,8.16,13,1.3.61,2.73,2.56,2.73,3.89.08,27.15-.05,54.29-.13,81.44-.01,3.86-.76,7.24-6.03,7.88.09.49.17.97.26,1.46,14.39,3.4,28.77,6.81,43.16,10.21.1-.39.2-.77.31-1.16-8.18-2.23-16.37-4.45-25.56-6.95v-96.07Z"/>
      <path class="cls-1" d="m112.07,225.31c-5.81,1.72-9.97,4.84-10.48,11.04-.49,5.97,2.28,10.07,7.52,13.19,1.28.76,2.09,3.22,2.07,4.89-.28,19.63-.63,39.27-1.24,58.89-.2,6.44,4.58,4.35,7.88,4.81,3.79.53,5.53-1.19,5.25-4.86-.38-4.98-.98-9.95-1.02-14.93-.13-15.75-.05-31.51-.05-47.29,8.81-2.34,13.28-6.29,13.15-12.47-.05-2.53-.67-5.76-2.36-7.4-3.23-3.11-7.42-5.3-10.8-7.59,0-5.55.04-11.36-.02-17.16-.03-3.39-.65-6.48-5.28-6.47-4.88,0-5.61,3.24-5.51,6.82.17,5.97.56,11.94.88,18.54Z"/>
      <path class="cls-1" d="m69.41,143.09c-1.59,0-2.8-.03-4.01,0-5.05.16-8.38,2.66-10.54,6.93-1.99,3.93.3,6.66,2.6,9.44,3.04,3.69,6.87,3.95,11.25,2.57,5.81-1.83,9.38-6.71,9.18-13.55-.2-6.96-.82-13.92-1.12-20.88-.26-6.12.37-6.64,6.68-7.02,1.71-.1,3.39-.63,5.07-1.02,5.78-1.35,11.55-2.73,17.75-4.21v24.71c-3.94,1.89-7.85,3.05-10.8,5.33-4.46,3.45-4.5,8.31-.99,12.36,3.28,3.78,8.79,4.47,13.11,1.4,4.39-3.12,7.08-7.23,7.02-12.69-.12-10.65-.22-21.3-.29-31.94-.09-13.51,0-13.27-13.67-9.73-10.16,2.63-20.52,4.55-31.25,6.89v31.41Z"/>
      <path class="cls-1" d="m43.2,248.6c.13,0,.26-.01.39-.02,0-12.47-.08-24.94.05-37.4.04-3.45-1.3-4.66-4.88-4.69-4.81-.04-6.86,1.68-6.85,6.46.02,22.6-.19,45.2-.32,67.8-.03,5.82,3.86,11.14,9.7,13.05,3.18,1.03,4.38-.08,4.17-3.39-.86-13.93-1.52-27.87-2.26-41.8Z"/>
      <path class="cls-1" d="m205.93,89.01c-.68,1.06-1.01,2.7-1.02,4.04-.05,5.16.18,10.33.68,15.46.12,1.23.61,3.05,1.81,3.7,2.85,1.56,6.67,2.69,9.8,3.64,20.54,6.19,33.76,34.73,19.17,57.14-5.46,8.4-13.68,13.08-22.29,17.36-2.84,1.41-3.67,2.74-3.7,5.56-.09,8.31.58,16.8-.96,24.89-4.41,23.11-29.66,30.06-45.57,20-11.95-7.56-12.16-25.32-.26-32.5,5.71-3.44,11.51-3.63,17.23-.31,5.83,3.39,7.78,8.76,7.32,14.99-.19,2.62-.98,5.19-1.51,7.87,6.35-1.4,10.21-4.2,10.8-10.41.82-8.68.21-17.48.21-26.53-9.35,1.21-18.37.86-27.14-2.79-25.95-10.8-39.71-41.65-29.85-67.04,4.6-11.84,11.84-21.97,22.01-29.85,8.35-6.47,17.35-12.21,26.3-17.94,2.47-1.58,3.2-2.82,2.49-5.56-1.9-7.26-3.73-14.55-5.12-21.9-3.01-15.9,1.98-30.02,12.28-42.2,7.34-8.69,21.69-9.85,27.6,2.84,9.73,20.9,8.04,38.63-2.09,57.96-.16.3-2.43,3.67-2.62,3.96-1.37,2.09-10.05,9.07-15.55,17.64Zm-13.5,5.41c-7.96,5.36-15.07,9.75-21.73,14.69-21.84,16.18-24.01,44.56-4.46,63.06,8.44,7.99,19.24,10.74,31.13,9.18-1.02-17.08-2.01-33.75-3.02-50.71-6.16.99-9.6,4.04-11.29,8.43-4.19,10.87.4,19.23,9.92,25.98-9.73,2.4-18.35-1-22.58-8.14-5.18-8.73-5.17-17.54-.2-26.19,5.08-8.85,11.77-16.07,23.31-17.1-.34-6.16-.66-11.79-1.07-19.21Zm16.58,83.81c10.66-2.52,19.48-13.38,20.07-24.07.52-9.63-10.11-22.34-22.12-26.08.69,16.78,1.37,33.4,2.05,50.15Zm-5.08-111.57c7.98-6.78,13.02-14.21,14.7-23.27,1.16-6.25,2.96-12.81-.67-18.94-1.22-2.06-3.69-5.52-4.63-5.25-2.71.77-5.81,2.65-7.13,4.95-2.01,3.5-3.24,7.65-3.75,11.65-1.27,10.04-.66,20.06,1.48,30.85Z"/>
      <path class="cls-1" d="m359.07,202.38c0,12.99-.08,25.64.03,38.28.06,6.84.77,7.39,7.78,8.89,5.15,1.1,10.25,2.4,16.14,3.78.22-1.3.79-3.28.85-5.27.32-10.49.49-20.98.78-31.46.05-1.81-.13-3.97.81-5.33,1.09-1.58,3.24-3.24,5.05-3.39,1.46-.12,3.65,1.68,4.54,3.16.97,1.61,1.08,3.83,1.13,5.79.25,10.32.09,20.67.64,30.97.31,5.82,2.2,11.56,2.48,17.37.18,3.7-1.27,7.48-2.18,12.18-12.36-9.57-25.74-14.73-39.51-17.5-11.53-2.32-23.8-1.51-35.75-1.68-18-.27-35.06,5.11-51.97,9.81-12.7,3.53-24.56,10.05-36.54,15.72-16.48,7.79-32.33,16.9-49.17,23.85-18.99,7.84-39.48,10-60.2,10.54,1.58-6.14,14.03-8.37,25-4.08.18-11.51.36-22.54.54-33.57.09-5.65.19-11.29.23-16.94.02-2.9,1.24-5.38,4.37-4.95,2.14.29,4.47,2.08,5.86,3.82.99,1.24.72,3.51.78,5.32.48,14.13.9,28.26,1.88,42.72,4.77-6.66,11.44-8.47,19.1-9.1,2.01-.17,4.92-3.33,5.36-5.49,1.68-8.32,2.52-16.79,3.67-25.2.18-1.32-.12-3.05.64-3.87,2.17-2.35,4.6-5.81,7.26-6.11,3.95-.45,4.73,3.83,4.99,6.97.54,6.45.72,12.94,1,18.58,3.03-.79,5.99-1.6,8.98-2.34,6.32-1.56,12.8-2.71,18.87-4.91,1.35-.49,1.78-4.64,1.75-7.1-.19-18.49-.66-36.97-.86-55.45-.02-2.16.42-4.96,1.83-6.38,2.88-2.9,8.63-.83,9.09,3.27.55,4.94.33,9.96.36,14.95.08,11.31.1,22.61.15,33.92.02,3.89,1.92,4.65,5.74,3.78,4.92-1.12,10.05-1.39,14.99-2.47,1.31-.29,3.15-2.2,3.17-3.39.31-17.81.48-35.62.28-53.43-.02-1.82-2.32-4.59-4.19-5.22-5.79-1.95-6.75-6.36-7.18-11.07-.47-5.14,1.6-9.49,6.92-11.08,4.09-1.23,4.9-3.32,4.52-6.93-.45-4.3-.48-8.64-.64-12.97-.14-3.76,1.3-6.08,5.74-5.87,4.27.2,7.7,1.27,7.7,6.15,0,4.16.4,8.45-.5,12.45-1.06,4.74.39,7.98,3.83,11.1,5.63,5.09,5.01,13.04-.72,18.31-1.77,1.63-3.39,4.39-3.4,6.63-.02,12.99.47,25.97.8,38.96.02.8.19,1.6.34,2.83,7.44,0,14.69.05,21.95-.02,3.92-.04,4.29-3.03,4.4-5.66.37-8.98.66-17.97.7-26.96.1-21.65.03-43.29.03-65.06-6.26-2.28-10.23-6.44-9.99-13.1.23-6.5,4.3-10.27,10.98-11.77-.4-5.07-.85-10-1.14-14.93-.09-1.63-.38-3.84.54-4.81,1.41-1.49,3.81-2.95,5.74-2.89,1.39.04,3.68,2.48,3.85,4.02.51,4.61-.16,9.34.33,13.96.2,1.87,1.75,4.3,3.43,5.21,4.65,2.52,7.59,5.88,7.73,11,.14,5.4-1.97,9.99-7.45,12.08-3.45,1.31-2.97,3.7-2.95,6.1.15,21.49.33,42.99.53,64.48.07,7.83.26,15.66.29,23.48.01,3.78,1.84,4.83,5.62,4.43,6.52-.69,13.08-.99,20.72-1.54v-46.49c-6.17-1.92-8.59-7.23-7.59-14.03.74-5.04,2.03-10.08,8.27-10.53,0-7.51-.02-14.65,0-21.78.02-4.85,2.34-7.6,6.36-7.46,5.09.18,5.54,3.61,5.51,7.4-.05,6.99-.01,13.98-.01,20.9,8.22,3.78,11.44,8.15,10.94,14.74-.46,6.08-3.61,9.21-11.99,11.66Z"/>
      <path class="cls-1" d="m108.61,397.46c1.79-.13,3.62-.57,5.36-.34,38.17,5.19,73.44-4.27,107.67-19.27,18.95-8.3,37.78-16.91,57.06-24.44,12.37-4.84,25.52-7.51,39.11-7.85,12.94-.32,25.22,2.14,37.28,6.24.93.31,1.74.94,3.22,1.77-15.34,18.4-34.52,31.93-55.05,43.46-32.36,18.17-68.05,24.83-105.21,24.11-31.57-.62-61.54-7.91-89.51-22.01.02-.56.05-1.12.07-1.68Z"/>
      <path class="cls-1" d="m18.84,305.37c.02-5.32,1.94-6.35,5.75-4.4,6.13,3.14,12.39,6.1,18.28,9.62,35.21,21,73.19,26.63,113.8,20.04,14.26-2.32,27.48-6.86,40.46-12.55,10.69-4.68,22.11-8.24,31.93-14.21,13.05-7.93,26.97-14.03,41.28-18.67,26.94-8.74,54.73-15.72,83.42-9.17,12.72,2.9,24.7,8.75,37,13.32,4.32,1.6,3.76,4.56,2.16,7.76-1.21,2.41-3.05,4.77-3.36,7.3-.59,4.76-2.73,4.19-6.28,2.9-10.22-3.72-20.31-8.21-30.9-10.44-25.35-5.36-50.16-1.12-74.55,6.16-23.02,6.87-43.95,18.14-65.27,28.55-20.49,10.01-42,16.87-64.89,19.14-30.53,3.03-60.19-.71-88.15-13.13-13.82-6.14-27.75-12.65-36.91-25.2-1.82-2.5-2.96-5.45-3.78-7.01Z"/>
      <path class="cls-1" d="m46.64,349.7c4.24.78,8.78.88,12.67,2.45,25.21,10.19,51.43,15.81,78.74,14.56,25.6-1.18,50.1-7.74,73.2-18.4,22.39-10.33,43.78-22.68,67.72-29.8,23.52-7,47.34-11.52,71.92-6.66,7.73,1.53,15.12,4.83,22.5,7.7,4.29,1.67,5.26,4.97,3.01,9.01-1.06,1.9-1.93,3.9-2.87,5.86-2.11,4.38-6.12,6.29-10.44,4.13-24.56-12.29-49.97-9.41-75.4-3.82-16.7,3.67-32.17,10.37-47.35,18.06-26.46,13.4-53.52,25.73-83.72,29.46-19.42,2.4-38.8,2.1-58.23-1-12.98-2.07-25.58-4.84-36.45-12.08-6.73-4.48-13.94-9.01-16.11-17.43.27-.68.54-1.36.81-2.03Z"/>
      <path class="cls-1" d="m82.5,213.66v96.07c9.19,2.5,17.37,4.73,25.56,6.95-.1.39-.2.77-.31,1.16-14.39-3.4-28.77-6.81-43.16-10.21-.09-.49-.17-.97-.26-1.46,5.26-.64,6.01-4.03,6.03-7.88.08-27.15.2-54.29.13-81.44,0-1.33-1.43-3.28-2.73-3.89-5.98-2.81-9.1-7.45-8.16-13,.95-5.63,7.08-11.39,13.02-11.09,4.54.23,9.24,1.4,13.43,3.12,4.3,1.77,7.27,5.23,6.59,10.31-.69,5.17-3.17,9.1-8.64,10.8-.82.25-1.61.58-1.49.54Z"/>
      <path class="cls-1" d="m112.07,225.31c-.33-6.6-.72-12.57-.88-18.54-.1-3.58.63-6.81,5.51-6.82,4.63,0,5.25,3.08,5.28,6.47.06,5.81.02,11.61.02,17.16,3.38,2.29,7.57,4.48,10.8,7.59,1.7,1.64,2.31,4.87,2.36,7.4.13,6.17-4.34,10.13-13.15,12.47,0,15.78-.08,31.53.05,47.29.04,4.98.63,9.96,1.02,14.93.28,3.67-1.46,5.39-5.25,4.86-3.3-.46-8.09,1.64-7.88-4.81.62-19.63.97-39.26,1.24-58.89.02-1.66-.78-4.12-2.07-4.89-5.25-3.12-8.01-7.22-7.52-13.19.51-6.19,4.67-9.31,10.48-11.04Z"/>
      <path class="cls-1" d="m69.41,143.09v-31.41c10.73-2.34,21.09-4.26,31.25-6.89,13.66-3.54,13.58-3.78,13.67,9.73.07,10.65.18,21.3.29,31.94.06,5.46-2.62,9.57-7.02,12.69-4.32,3.07-9.83,2.37-13.11-1.4-3.51-4.04-3.47-8.91.99-12.36,2.95-2.28,6.85-3.45,10.8-5.33v-24.71c-6.21,1.47-11.98,2.85-17.75,4.21-1.68.39-3.37.92-5.07,1.02-6.31.38-6.94.9-6.68,7.02.3,6.96.92,13.91,1.12,20.88.2,6.84-3.37,11.72-9.18,13.55-4.38,1.38-8.21,1.12-11.25-2.57-2.3-2.78-4.58-5.51-2.6-9.44,2.16-4.27,5.49-6.77,10.54-6.93,1.21-.04,2.41,0,4.01,0Z"/>
      <path class="cls-1" d="m43.2,248.6c.74,13.93,1.4,27.87,2.26,41.8.21,3.32-1,4.43-4.17,3.39-5.84-1.9-9.73-7.22-9.7-13.05.13-22.6.34-45.2.32-67.8,0-4.78,2.04-6.5,6.85-6.46,3.59.03,4.92,1.24,4.88,4.69-.13,12.47-.05,24.93-.05,37.4-.13,0-.26.01-.39.02Z"/>
    </g>
  </g>
</svg>