<svg xmlns="http://www.w3.org/2000/svg" xmlns:xlink="http://www.w3.org/1999/xlink" version="1.1" width="256" height="256" viewBox="0 0 256 256" xml:space="preserve">

<defs>
</defs>
<g style="stroke: none; stroke-width: 0; stroke-dasharray: none; stroke-linecap: butt; stroke-linejoin: miter; stroke-miterlimit: 10; fill: none; fill-rule: nonzero; opacity: 1;" transform="translate(1.4065934065934016 1.4065934065934016) scale(2.81 2.81)" >
	<path d="M 87.369 28.413 V 6.957 l -7.083 7.083 C 74.584 8.019 67.367 3.716 59.293 1.553 c -11.61 -3.111 -23.737 -1.515 -34.144 4.495 C 14.741 12.058 7.295 21.761 4.184 33.371 c -3.111 11.61 -1.515 23.735 4.495 34.145 c 6.009 10.409 15.713 17.853 27.322 20.964 C 39.832 89.506 43.712 90 47.556 90 c 15.56 0 30.484 -8.11 38.712 -21.875 l -8.604 -5.143 C 69.69 76.32 53.625 82.823 38.596 78.796 c -9.023 -2.418 -16.565 -8.204 -21.235 -16.294 c -4.67 -8.089 -5.911 -17.514 -3.493 -26.537 c 2.417 -9.023 8.204 -16.565 16.294 -21.235 c 8.089 -4.671 17.513 -5.912 26.536 -3.494 c 6.364 1.705 12.026 5.132 16.482 9.91 l -7.267 7.267 H 87.369 z" style="stroke: none; stroke-width: 1; stroke-dasharray: none; stroke-linecap: butt; stroke-linejoin: miter; stroke-miterlimit: 10; fill: rgb(206,60,60); fill-rule: nonzero; opacity: 1;" transform=" matrix(1 0 0 1 0 0) " stroke-linecap="round" />
	<path d="M 54.537 53.059 h -4.59 v -3.484 h 4.59 c 0.06 0 0.117 -0.057 0.117 -0.117 v -1.633 c 0 -0.06 -0.057 -0.117 -0.117 -0.117 h -1.945 c -1.986 0 -3.601 -1.616 -3.601 -3.602 v -1.634 c 0 -1.985 1.615 -3.601 3.601 -3.601 h 4.703 v 3.484 h -4.703 c -0.06 0 -0.117 0.057 -0.117 0.117 v 1.634 c 0 0.06 0.057 0.117 0.117 0.117 h 1.945 c 1.986 0 3.601 1.616 3.601 3.602 v 1.633 C 58.138 51.443 56.523 53.059 54.537 53.059 z" style="stroke: none; stroke-width: 1; stroke-dasharray: none; stroke-linecap: butt; stroke-linejoin: miter; stroke-miterlimit: 10; fill: rgb(63,63,63); fill-rule: nonzero; opacity: 1;" transform=" matrix(1 0 0 1 0 0) " stroke-linecap="round" />
	<polygon points="46.15,42.35 46.15,38.87 37.47,38.87 37.47,53.06 46.15,53.06 46.15,49.57 40.95,49.57 40.95,47.71 44.51,47.71 44.51,44.22 40.95,44.22 40.95,42.35 " style="stroke: none; stroke-width: 1; stroke-dasharray: none; stroke-linecap: butt; stroke-linejoin: miter; stroke-miterlimit: 10; fill: rgb(63,63,63); fill-rule: nonzero; opacity: 1;" transform="  matrix(1 0 0 1 0 0) "/>
	<polygon points="71.15,42.35 71.15,38.87 62.46,38.87 62.46,53.06 71.15,53.06 71.15,49.57 65.95,49.57 65.95,47.71 69.51,47.71 69.51,44.22 65.95,44.22 65.95,42.35 " style="stroke: none; stroke-width: 1; stroke-dasharray: none; stroke-linecap: butt; stroke-linejoin: miter; stroke-miterlimit: 10; fill: rgb(63,63,63); fill-rule: nonzero; opacity: 1;" transform="  matrix(1 0 0 1 0 0) "/>
	<polygon points="77.87,53.06 81.35,53.06 81.35,42.35 84.03,42.35 84.03,38.87 75.19,38.87 75.19,42.35 77.87,42.35 " style="stroke: none; stroke-width: 1; stroke-dasharray: none; stroke-linecap: butt; stroke-linejoin: miter; stroke-miterlimit: 10; fill: rgb(63,63,63); fill-rule: nonzero; opacity: 1;" transform="  matrix(1 0 0 1 0 0) "/>
	<path d="M 26.25 53.059 v -5.351 h 0.61 l 3.322 5.351 h 4.101 L 30.709 47.3 c 1.288 -0.632 2.185 -1.945 2.185 -3.474 v -0.905 c 0 -2.233 -1.817 -4.05 -4.05 -4.05 h -6.078 v 14.188 H 26.25 z M 26.25 42.355 h 2.593 c 0.307 0 0.566 0.259 0.566 0.566 v 0.905 c 0 0.218 -0.178 0.396 -0.396 0.396 H 26.25 V 42.355 z" style="stroke: none; stroke-width: 1; stroke-dasharray: none; stroke-linecap: butt; stroke-linejoin: miter; stroke-miterlimit: 10; fill: rgb(63,63,63); fill-rule: nonzero; opacity: 1;" transform=" matrix(1 0 0 1 0 0) " stroke-linecap="round" />
</g>
</svg>